<svg version="1.1" id="Layer_1" xmlns="http://www.w3.org/2000/svg" xmlns:xlink="http://www.w3.org/1999/xlink" x="0px" y="0px"
	 width="100%" viewBox="0 0 500 500" enable-background="new 0 0 500 500" xml:space="preserve">
<path fill="#FFC614" opacity="1.000000" stroke="none" 
	d="
M1.000000,487.000000 
	C1.000000,329.975922 1.000000,172.951843 1.257337,15.796787 
	C5.056606,10.064967 8.635437,4.502310 15.276081,2.010608 
	C15.306211,1.999303 15.097284,1.350880 15.000000,1.000000 
	C172.024078,1.000000 329.048157,1.000000 486.203430,1.257609 
	C492.054871,4.940021 497.206177,8.925868 499.989960,15.275805 
	C500.010437,15.322492 500.649658,15.097917 501.000000,14.999994 
	C501.000000,172.024078 501.000000,329.048157 500.742981,486.202789 
	C497.053070,492.045837 493.079254,497.209686 486.725159,499.989990 
	C486.678406,500.010437 486.902405,500.649689 487.000000,501.000000 
	C329.975922,501.000000 172.951843,501.000000 15.796780,500.742676 
	C9.950856,497.055176 4.792289,493.076447 2.010019,486.724792 
	C1.989531,486.678040 1.350310,486.902283 1.000000,487.000000 
M257.105896,404.467346 
	C290.133698,417.911743 323.942719,419.327545 357.698792,408.673431 
	C389.945862,398.495575 412.986359,377.406342 424.526306,345.079773 
	C431.785645,324.744293 432.830597,303.705872 428.994324,282.547729 
	C421.684052,242.229919 397.821106,215.489853 359.623413,202.301315 
	C329.213165,191.801529 298.034912,192.268372 267.355988,202.071625 
	C240.486252,210.657669 219.890976,227.523514 207.130600,252.732803 
	C192.861771,280.922150 191.892136,310.807281 200.419815,340.696167 
	C208.897720,370.410675 228.808044,390.882935 257.105896,404.467346 
M157.884857,391.499878 
	C157.884857,326.957550 157.884857,262.415192 157.884857,197.685791 
	C134.622345,197.685791 112.038780,197.685791 89.397865,197.685791 
	C89.397865,269.591278 89.397865,341.240143 89.397865,412.696106 
	C112.371017,412.696106 134.954849,412.696106 157.884857,412.696106 
	C157.884857,405.763947 157.884857,399.131866 157.884857,391.499878 
M154.631912,114.956467 
	C144.269196,99.714783 127.073235,96.201744 110.799980,101.124130 
	C99.673981,104.489548 88.556923,115.534325 87.455803,132.795013 
	C86.544083,147.086578 93.241402,160.868744 105.472687,167.510513 
	C118.738426,174.714005 135.636978,173.456467 146.793350,164.435623 
	C160.938553,152.998047 164.222900,133.442947 154.631912,114.956467 
M243.969070,138.357285 
	C244.690903,152.997208 253.088760,163.021164 267.574554,166.533615 
	C280.706940,169.717911 295.422119,163.952026 301.924774,153.074112 
	C308.750031,141.656509 307.216553,125.376808 298.375214,115.391655 
	C290.410370,106.396408 275.741577,103.057777 263.485992,107.450874 
	C251.171616,111.865036 244.322983,122.360794 243.969070,138.357285 
M360.701569,106.611900 
	C358.738922,106.325783 356.785095,105.931572 354.812256,105.770508 
	C337.840210,104.384933 324.089233,114.795952 321.376953,131.040115 
	C318.505432,148.238190 327.979309,162.544464 344.911011,166.578339 
	C361.190918,170.456909 377.964203,161.157547 382.000610,146.015335 
	C386.777618,128.094879 378.245850,111.826378 360.701569,106.611900 
z"/>
<path fill="#000000" opacity="1.000000" stroke="none" 
	d="
M501.000000,14.525866 
	C500.649658,15.097917 500.010437,15.322492 499.989960,15.275805 
	C497.206177,8.925868 492.054871,4.940021 486.667297,1.257609 
	C491.590607,1.000000 496.181183,1.000000 501.000000,1.000000 
	C501.000000,5.348905 501.000000,9.700325 501.000000,14.525866 
z"/>
<path fill="#000000" opacity="1.000000" stroke="none" 
	d="
M1.000000,487.474121 
	C1.350310,486.902283 1.989531,486.678040 2.010019,486.724792 
	C4.792289,493.076447 9.950856,497.055176 15.332896,500.742676 
	C10.409399,501.000000 5.818798,501.000000 1.000000,501.000000 
	C1.000000,496.651093 1.000000,492.299652 1.000000,487.474121 
z"/>
<path fill="#000000" opacity="1.000000" stroke="none" 
	d="
M487.474121,501.000000 
	C486.902405,500.649689 486.678406,500.010437 486.725159,499.989990 
	C493.079254,497.209686 497.053070,492.045837 500.742981,486.666687 
	C501.000000,491.590607 501.000000,496.181183 501.000000,501.000000 
	C496.651093,501.000000 492.299652,501.000000 487.474121,501.000000 
z"/>
<path fill="#000000" opacity="1.000000" stroke="none" 
	d="
M14.525872,1.000000 
	C15.097284,1.350880 15.306211,1.999303 15.276081,2.010608 
	C8.635437,4.502310 5.056606,10.064967 1.257337,15.332903 
	C1.000000,10.409401 1.000000,5.818802 1.000000,1.000000 
	C5.348905,1.000000 9.700325,1.000000 14.525872,1.000000 
z"/>
<path fill="#010100" opacity="1.000000" stroke="none" 
	d="
M256.761261,404.305481 
	C228.808044,390.882935 208.897720,370.410675 200.419815,340.696167 
	C191.892136,310.807281 192.861771,280.922150 207.130600,252.732803 
	C219.890976,227.523514 240.486252,210.657669 267.355988,202.071625 
	C298.034912,192.268372 329.213165,191.801529 359.623413,202.301315 
	C397.821106,215.489853 421.684052,242.229919 428.994324,282.547729 
	C432.830597,303.705872 431.785645,324.744293 424.526306,345.079773 
	C412.986359,377.406342 389.945862,398.495575 357.698792,408.673431 
	C323.942719,419.327545 290.133698,417.911743 256.761261,404.305481 
M328.989258,252.269043 
	C306.103119,245.900467 286.592194,252.446838 274.577972,270.525269 
	C261.638275,289.996277 261.756226,322.197235 274.838318,341.587280 
	C293.439941,369.158325 334.263397,369.358887 351.648834,341.067688 
	C365.636047,318.306366 365.050049,294.247192 351.931122,270.978851 
	C347.015472,262.260193 339.453125,255.902924 328.989258,252.269043 
z"/>
<path fill="#010100" opacity="1.000000" stroke="none" 
	d="
M157.884857,391.999817 
	C157.884857,399.131866 157.884857,405.763947 157.884857,412.696106 
	C134.954849,412.696106 112.371017,412.696106 89.397865,412.696106 
	C89.397865,341.240143 89.397865,269.591278 89.397865,197.685791 
	C112.038780,197.685791 134.622345,197.685791 157.884857,197.685791 
	C157.884857,262.415192 157.884857,326.957550 157.884857,391.999817 
z"/>
<path fill="#020100" opacity="1.000000" stroke="none" 
	d="
M154.814331,115.274384 
	C164.222900,133.442947 160.938553,152.998047 146.793350,164.435623 
	C135.636978,173.456467 118.738426,174.714005 105.472687,167.510513 
	C93.241402,160.868744 86.544083,147.086578 87.455803,132.795013 
	C88.556923,115.534325 99.673981,104.489548 110.799980,101.124130 
	C127.073235,96.201744 144.269196,99.714783 154.814331,115.274384 
z"/>
<path fill="#020100" opacity="1.000000" stroke="none" 
	d="
M243.945847,137.894836 
	C244.322983,122.360794 251.171616,111.865036 263.485992,107.450874 
	C275.741577,103.057777 290.410370,106.396408 298.375214,115.391655 
	C307.216553,125.376808 308.750031,141.656509 301.924774,153.074112 
	C295.422119,163.952026 280.706940,169.717911 267.574554,166.533615 
	C253.088760,163.021164 244.690903,152.997208 243.945847,137.894836 
z"/>
<path fill="#020100" opacity="1.000000" stroke="none" 
	d="
M361.086365,106.740768 
	C378.245850,111.826378 386.777618,128.094879 382.000610,146.015335 
	C377.964203,161.157547 361.190918,170.456909 344.911011,166.578339 
	C327.979309,162.544464 318.505432,148.238190 321.376953,131.040115 
	C324.089233,114.795952 337.840210,104.384933 354.812256,105.770508 
	C356.785095,105.931572 358.738922,106.325783 361.086365,106.740768 
z"/>
<path fill="#FEC514" opacity="1.000000" stroke="none" 
	d="
M329.338379,252.455780 
	C339.453125,255.902924 347.015472,262.260193 351.931122,270.978851 
	C365.050049,294.247192 365.636047,318.306366 351.648834,341.067688 
	C334.263397,369.358887 293.439941,369.158325 274.838318,341.587280 
	C261.756226,322.197235 261.638275,289.996277 274.577972,270.525269 
	C286.592194,252.446838 306.103119,245.900467 329.338379,252.455780 
z"/>
</svg>